<?xml version="1.0" encoding="utf-8"?>
<!-- Svg Vector Icons : http://www.onlinewebfonts.com/icon -->
<!DOCTYPE svg PUBLIC "-//W3C//DTD SVG 1.1//EN" "http://www.w3.org/Graphics/SVG/1.1/DTD/svg11.dtd">
<svg version="1.1" xmlns="http://www.w3.org/2000/svg" xmlns:xlink="http://www.w3.org/1999/xlink" x="0px" y="0px" viewBox="0 0 1000 1000" enable-background="new 0 0 1000 1000" xml:space="preserve">
<metadata> Svg Vector Icons : http://www.onlinewebfonts.com/icon </metadata>
<g><path d="M956.2,466.2H449.3l-33.8,84.5v152.1v152.1H990V702.8V550.7L956.2,466.2z M479.1,500h447.3l17.9,50.7h-483L479.1,500z M956.2,821H449.3V719.7h506.9V821z M956.2,685.9H449.3V584.5h506.9V685.9z"/><path d="M871.7,618.3h33.8v33.8h-33.8V618.3z"/><path d="M871.7,753.4h33.8v33.8h-33.8V753.4z"/><path d="M43.9,635.2c0-112,91.1-202.8,203.5-202.8c0,0,0,0,0,0c1.8-14.3,3.4-22.8,6.6-35.5C281.9,272.2,393.6,179,527.1,179c145.9,0,265.8,111.4,278.6,253.4h34c-12.9-160.8-148-287.2-312.6-287.2c-153.5,0-281.3,109.9-308.4,255.2C101.1,414.4,10,514.2,10,635.2c0,130.6,118.6,152.1,169.5,152.1l0-8.9v-24.9C160.6,753.4,43.9,747.2,43.9,635.2z"/><path d="M179.5,778.4v8.9H383v-33.8H179.6L179.5,778.4z"/><path d="M297.2,433.1h16.8c19-103.5,107.8-182.7,215.9-186.6v-16.8C413.1,234.5,317.1,320.7,297.2,433.1z"/></g>
</svg>